# xmcd
#
# Track frame offsets: 
#        150
#        18570
#        37250
#        55877
#        73922
#        93892
#        110562
#        129902
#        142277
#        165102
#
# Disc length: 2468 seconds
#
# Revision: 0
# Processed by: cddbd v1.5.2PL0 Copyright (c) Steve Scherf et al.
# Submitted via: ExactAudioCopy v0.95a5
#
DISCID=8c09a20a
DTITLE=Tangora - Etadam_Promo
DYEAR=1997
DGENRE=
TTITLE0=Etadam
TTITLE1=Carmel La Sorciere
TTITLE2=Siddi Bel Haley
TTITLE3=Latin Lover
TTITLE4=Rubber Comes From Trees
TTITLE5=Deeling Deeling
TTITLE6=Je Suis Venue Te Dire Que Je M'en Vais
TTITLE7=Mario Loco
TTITLE8=Ya Habibi Taala
TTITLE9=La Tarasque
EXTD=
EXTT0=
EXTT1=
EXTT2=
EXTT3=
EXTT4=
EXTT5=
EXTT6=
EXTT7=
EXTT8=
EXTT9=
PLAYORDER=
